<svg width="44" height="40" viewBox="0 0 44 40" fill="none" xmlns="http://www.w3.org/2000/svg">
<path d="M31.5537 36.6297L42.1226 36.1064C42.9289 36.0482 43.6199 36.6881 43.6638 37.4446C43.7078 38.2592 43.0888 38.9575 42.2819 39.0157L31.6972 39.5391C30.8898 39.5391 30.2029 38.9575 30.163 38.1429C30.1239 37.3283 30.7469 36.6297 31.5537 36.6297Z" fill="#0FD476"/>
<path d="M18.4488 24.8756C21.2683 22.1302 23.9215 19.2261 26.5766 16.3198C29.7176 12.8817 32.8614 9.44068 36.2863 6.25594C36.8766 5.73227 36.9082 4.80128 36.3571 4.21941C35.8055 3.63755 34.878 3.57959 34.2878 4.16146C30.8532 7.34607 27.6999 10.787 24.5493 14.2249C21.8859 17.1313 19.2243 20.0356 16.3964 22.7811C15.8202 23.363 15.8121 24.2938 16.3789 24.8756C16.9451 25.3993 17.8726 25.4575 18.4488 24.8756Z" fill="#0FD476"/>
<path d="M3.53865 13.5879C4.59027 9.86397 5.12079 5.96515 5.60685 2.18303C5.70871 1.36842 5.14016 0.612112 4.33908 0.553922C3.53744 0.437542 2.80434 1.01974 2.70241 1.77618C2.23457 5.44192 1.73392 9.22371 0.721481 12.7731C0.501896 13.5295 0.953934 14.3444 1.73156 14.5772C2.50863 14.8099 3.31842 14.3443 3.53865 13.5879Z" fill="#0FD476"/>
</svg>
