<svg width="16" height="20" viewBox="0 0 16 20" fill="none" xmlns="http://www.w3.org/2000/svg">
<path d="M3.08053 17.0054C3.08053 15.5919 1.83869 13.617 0 13.617C1.83886 13.617 3.08053 11.6422 3.08053 10.2285C3.08053 11.642 4.32237 13.617 6.16105 13.617C4.32237 13.6171 3.08053 15.5919 3.08053 17.0054ZM16 15.0722C13.5881 15.0722 11.9641 12.4945 11.9641 10.6444C11.9641 12.4945 10.3403 15.0722 7.92823 15.0722C10.3401 15.0722 11.9641 17.6707 11.9641 19.5C11.9641 17.6497 13.6119 15.0722 16 15.0722ZM13.6119 6.27899C10.4836 6.27899 8.3582 2.91142 8.3582 0.5C8.3582 2.91142 6.23278 6.27899 3.10441 6.27899C6.23274 6.27899 8.3582 9.64657 8.3582 12.058C8.358 9.64657 10.4834 6.27899 13.6119 6.27899Z" fill="white"/>
</svg>
