<svg width="218" height="44" viewBox="0 0 218 44" fill="none" xmlns="http://www.w3.org/2000/svg">
<path fill-rule="evenodd" clip-rule="evenodd" d="M32.3086 0H11.6914C4.50476 0 0 5.08658 0 12.2873V31.7127C0 38.9134 4.48381 44 11.6914 44H32.3086C39.5162 44 44 38.9134 44 31.7127V12.2873C44 5.08658 39.5162 0 32.3086 0Z" fill="#1260FF"/>
<path d="M11.8114 18.0439V33.1362" stroke="white" stroke-width="2" stroke-linecap="round" stroke-linejoin="round"/>
<path d="M22.084 10.8218V33.1358" stroke="white" stroke-width="2" stroke-linecap="round" stroke-linejoin="round"/>
<path d="M32.1886 26.019V33.1361" stroke="white" stroke-width="2" stroke-linecap="round" stroke-linejoin="round"/>
<path d="M63.798 34.476C57.61 34.476 53.7 31.11 54.074 26.01H58.222C58.018 29.104 60.16 30.94 63.866 30.94C67.028 30.94 69 29.58 69 27.404C69 21.59 54.482 26.316 54.482 17.068C54.482 12.478 58.052 9.724 63.526 9.724C69.544 9.724 73.216 13.124 72.502 18.122H68.388C68.932 15.062 66.858 13.26 63.424 13.26C60.534 13.26 58.664 14.518 58.664 16.66C58.664 22.44 73.216 17.884 73.216 27.03C73.216 31.722 69.408 34.476 63.798 34.476ZM83.8878 16.524C88.8518 16.524 91.3678 19.618 91.3678 24.344V34H87.7978V31.042C86.5398 33.218 84.4658 34.476 81.6778 34.476C78.0738 34.476 75.8298 32.368 75.8298 29.41C75.8298 25.976 78.8218 23.902 83.6158 23.902C84.9418 23.902 86.3018 24.072 87.4918 24.344C87.4918 21.76 86.5738 19.89 83.8538 19.89C81.8138 19.89 80.5558 20.91 80.9638 22.814H77.0538C76.1358 19.04 79.4678 16.524 83.8878 16.524ZM82.4598 31.382C84.9418 31.382 86.9818 29.784 87.6278 27.302C86.5058 26.928 85.1458 26.724 83.9218 26.724C81.1338 26.724 79.7738 27.744 79.7738 29.308C79.7738 30.668 80.7938 31.382 82.4598 31.382ZM98.8215 34H94.9455V10.2H98.8215V34ZM114.679 28.628H118.895C117.909 32.198 114.883 34.476 110.633 34.476C105.329 34.476 101.963 30.906 101.963 25.5C101.963 20.094 105.363 16.524 110.735 16.524C116.719 16.524 119.813 21.012 118.181 26.588H106.077C106.417 29.41 107.981 31.076 110.701 31.076C112.605 31.076 114.101 30.192 114.679 28.628ZM110.667 19.788C108.117 19.788 106.553 21.216 106.145 23.834H114.509C114.747 21.386 113.353 19.788 110.667 19.788ZM128.637 34.476C123.843 34.476 120.681 32.028 120.953 27.914H124.693C124.455 30.022 126.019 31.348 128.671 31.348C130.745 31.348 132.139 30.532 132.139 29.308C132.139 25.908 121.191 28.356 121.191 21.998C121.191 18.598 124.353 16.524 128.467 16.524C133.023 16.524 136.321 19.074 135.607 22.916H131.833C132.309 20.978 130.779 19.652 128.433 19.652C126.461 19.652 125.169 20.536 125.169 21.76C125.169 25.194 136.151 22.576 136.151 29.036C136.151 32.47 133.057 34.476 128.637 34.476ZM148.831 34.476C142.643 34.476 138.733 31.11 139.107 26.01H143.255C143.051 29.104 145.193 30.94 148.899 30.94C152.061 30.94 154.033 29.58 154.033 27.404C154.033 21.59 139.515 26.316 139.515 17.068C139.515 12.478 143.085 9.724 148.559 9.724C154.577 9.724 158.249 13.124 157.535 18.122H153.421C153.965 15.062 151.891 13.26 148.457 13.26C145.567 13.26 143.697 14.518 143.697 16.66C143.697 22.44 158.249 17.884 158.249 27.03C158.249 31.722 154.441 34.476 148.831 34.476ZM171.668 16.524C177.142 16.524 177.142 21.93 177.142 24.48V34H173.266V24.582C173.266 22.644 173.266 19.89 170.274 19.89C167.69 19.89 165.888 22.202 165.888 25.67V34H162.012V17H165.888V20.128C167.01 17.884 169.084 16.524 171.668 16.524ZM187.747 16.524C192.711 16.524 195.227 19.618 195.227 24.344V34H191.657V31.042C190.399 33.218 188.325 34.476 185.537 34.476C181.933 34.476 179.689 32.368 179.689 29.41C179.689 25.976 182.681 23.902 187.475 23.902C188.801 23.902 190.161 24.072 191.351 24.344C191.351 21.76 190.433 19.89 187.713 19.89C185.673 19.89 184.415 20.91 184.823 22.814H180.913C179.995 19.04 183.327 16.524 187.747 16.524ZM186.319 31.382C188.801 31.382 190.841 29.784 191.487 27.302C190.365 26.928 189.005 26.724 187.781 26.724C184.993 26.724 183.633 27.744 183.633 29.308C183.633 30.668 184.653 31.382 186.319 31.382ZM208.325 16.524C212.847 16.524 216.077 20.128 216.077 25.5C216.077 30.906 212.847 34.476 208.325 34.476C205.775 34.476 203.769 33.32 202.511 31.348V40.8H198.635V17H202.511V19.618C203.769 17.68 205.775 16.524 208.325 16.524ZM207.237 31.11C210.127 31.11 212.031 28.866 212.031 25.5C212.031 22.134 210.127 19.924 207.237 19.924C204.381 19.924 202.477 22.134 202.477 25.5C202.477 28.866 204.381 31.11 207.237 31.11Z" fill="#101011"/>
</svg>
