<svg width="153" height="28" viewBox="0 0 153 28" fill="none" xmlns="http://www.w3.org/2000/svg">
<path fill-rule="evenodd" clip-rule="evenodd" d="M20.56 0H7.44C2.86667 0 0 3.23692 0 7.81922V20.1808C0 24.7631 2.85333 28 7.44 28H20.56C25.1467 28 28 24.7631 28 20.1808V7.81922C28 3.23692 25.1467 0 20.56 0Z" fill="#1260FF"/>
<path d="M7.51953 11.4823V21.0865" stroke="white" stroke-width="2" stroke-linecap="round" stroke-linejoin="round"/>
<path d="M14.0533 6.88686V21.0867" stroke="white" stroke-width="2" stroke-linecap="round" stroke-linejoin="round"/>
<path d="M20.4805 16.5577V21.0867" stroke="white" stroke-width="2" stroke-linecap="round" stroke-linejoin="round"/>
<path d="M44.328 22.336C39.96 22.336 37.2 19.96 37.464 16.36H40.392C40.248 18.544 41.76 19.84 44.376 19.84C46.608 19.84 48 18.88 48 17.344C48 13.24 37.752 16.576 37.752 10.048C37.752 6.808 40.272 4.864 44.136 4.864C48.384 4.864 50.976 7.264 50.472 10.792H47.568C47.952 8.632 46.488 7.36 44.064 7.36C42.024 7.36 40.704 8.248 40.704 9.76C40.704 13.84 50.976 10.624 50.976 17.08C50.976 20.392 48.288 22.336 44.328 22.336ZM58.509 9.664C62.013 9.664 63.789 11.848 63.789 15.184V22H61.269V19.912C60.381 21.448 58.917 22.336 56.949 22.336C54.405 22.336 52.821 20.848 52.821 18.76C52.821 16.336 54.933 14.872 58.317 14.872C59.253 14.872 60.213 14.992 61.053 15.184C61.053 13.36 60.405 12.04 58.485 12.04C57.045 12.04 56.157 12.76 56.445 14.104H53.685C53.037 11.44 55.389 9.664 58.509 9.664ZM57.501 20.152C59.253 20.152 60.693 19.024 61.149 17.272C60.357 17.008 59.397 16.864 58.533 16.864C56.565 16.864 55.605 17.584 55.605 18.688C55.605 19.648 56.325 20.152 57.501 20.152ZM69.0504 22H66.3144V5.2H69.0504V22ZM80.244 18.208H83.22C82.524 20.728 80.388 22.336 77.388 22.336C73.644 22.336 71.268 19.816 71.268 16C71.268 12.184 73.668 9.664 77.46 9.664C81.684 9.664 83.868 12.832 82.716 16.768H74.172C74.412 18.76 75.516 19.936 77.436 19.936C78.78 19.936 79.836 19.312 80.244 18.208ZM77.412 11.968C75.612 11.968 74.508 12.976 74.22 14.824H80.124C80.292 13.096 79.308 11.968 77.412 11.968ZM90.0966 22.336C86.7126 22.336 84.4806 20.608 84.6726 17.704H87.3126C87.1446 19.192 88.2486 20.128 90.1206 20.128C91.5846 20.128 92.5686 19.552 92.5686 18.688C92.5686 16.288 84.8406 18.016 84.8406 13.528C84.8406 11.128 87.0726 9.664 89.9766 9.664C93.1926 9.664 95.5206 11.464 95.0166 14.176H92.3526C92.6886 12.808 91.6086 11.872 89.9526 11.872C88.5606 11.872 87.6486 12.496 87.6486 13.36C87.6486 15.784 95.4006 13.936 95.4006 18.496C95.4006 20.92 93.2166 22.336 90.0966 22.336ZM104.351 22.336C99.9834 22.336 97.2234 19.96 97.4874 16.36H100.415C100.271 18.544 101.783 19.84 104.399 19.84C106.631 19.84 108.023 18.88 108.023 17.344C108.023 13.24 97.7754 16.576 97.7754 10.048C97.7754 6.808 100.295 4.864 104.159 4.864C108.407 4.864 110.999 7.264 110.495 10.792H107.591C107.975 8.632 106.511 7.36 104.087 7.36C102.047 7.36 100.727 8.248 100.727 9.76C100.727 13.84 110.999 10.624 110.999 17.08C110.999 20.392 108.311 22.336 104.351 22.336ZM120.471 9.664C124.335 9.664 124.335 13.48 124.335 15.28V22H121.599V15.352C121.599 13.984 121.599 12.04 119.487 12.04C117.663 12.04 116.391 13.672 116.391 16.12V22H113.655V10H116.391V12.208C117.183 10.624 118.647 9.664 120.471 9.664ZM131.822 9.664C135.326 9.664 137.102 11.848 137.102 15.184V22H134.582V19.912C133.694 21.448 132.23 22.336 130.262 22.336C127.718 22.336 126.134 20.848 126.134 18.76C126.134 16.336 128.246 14.872 131.63 14.872C132.566 14.872 133.526 14.992 134.366 15.184C134.366 13.36 133.718 12.04 131.798 12.04C130.358 12.04 129.47 12.76 129.758 14.104H126.998C126.35 11.44 128.702 9.664 131.822 9.664ZM130.814 20.152C132.566 20.152 134.006 19.024 134.462 17.272C133.67 17.008 132.71 16.864 131.846 16.864C129.878 16.864 128.918 17.584 128.918 18.688C128.918 19.648 129.638 20.152 130.814 20.152ZM146.347 9.664C149.539 9.664 151.819 12.208 151.819 16C151.819 19.816 149.539 22.336 146.347 22.336C144.547 22.336 143.131 21.52 142.243 20.128V26.8H139.507V10H142.243V11.848C143.131 10.48 144.547 9.664 146.347 9.664ZM145.579 19.96C147.619 19.96 148.963 18.376 148.963 16C148.963 13.624 147.619 12.064 145.579 12.064C143.563 12.064 142.219 13.624 142.219 16C142.219 18.376 143.563 19.96 145.579 19.96Z" fill="white"/>
</svg>
